<?xml version="1.0" encoding="utf-8"?>
<!-- Generator: Adobe Illustrator 17.0.0, SVG Export Plug-In . SVG Version: 6.00 Build 0)  -->
<!DOCTYPE svg PUBLIC "-//W3C//DTD SVG 1.1//EN" "http://www.w3.org/Graphics/SVG/1.1/DTD/svg11.dtd">
<svg version="1.1" id="Calque_1" xmlns="http://www.w3.org/2000/svg" xmlns:xlink="http://www.w3.org/1999/xlink" x="0px" y="0px"
	 width="200px" height="200px" viewBox="0 0 200 200" enable-background="new 0 0 200 200" xml:space="preserve">
<g>
	<path fill="#B4B9BB" d="M84.362,159.231v-7.651c7.608-1.435,14.824-4.519,21.111-9.022l5.311,5.311
		c0.518,0.517,1.216,0.807,1.951,0.807c0.731,0,1.434-0.29,1.952-0.807l9.267-9.268c1.077-1.078,1.077-2.824,0-3.903l-5.468-5.468
		c4.261-6.231,7.157-13.307,8.47-20.703h7.766c1.524,0,2.759-1.236,2.759-2.759V92.66c0-1.523-1.235-2.758-2.759-2.758h-7.767
		c-1.323-7.457-4.253-14.583-8.565-20.851l5.318-5.323c1.078-1.077,1.078-2.823,0-3.903l-9.268-9.266
		c-0.519-0.518-1.219-0.808-1.952-0.808s-1.433,0.29-1.951,0.808l-5.212,5.212c-6.257-4.448-13.42-7.498-20.963-8.922v-6.955
		c0-1.523-1.232-2.76-2.759-2.76H68.497c-1.526,0-2.76,1.237-2.76,2.76v6.725c-7.599,1.266-14.875,4.2-21.281,8.584l-4.887-4.888
		c-1.078-1.077-2.824-1.077-3.902,0l-9.272,9.268c-0.517,0.518-0.807,1.22-0.807,1.951s0.292,1.433,0.807,1.951l4.731,4.734
		c-4.624,6.459-7.751,13.873-9.132,21.685h-6.612c-1.525,0-2.76,1.235-2.76,2.759v13.107c0,1.523,1.235,2.757,2.76,2.757h6.612
		c1.371,7.749,4.461,15.111,9.034,21.539l-4.876,4.879c-1.035,1.036-1.035,2.868,0,3.902l9.269,9.268
		c1.08,1.078,2.823,1.078,3.902,0l4.991-4.987c6.446,4.44,13.766,7.409,21.427,8.684v7.421c0,1.524,1.231,2.76,2.757,2.76h13.106
		C83.13,161.99,84.362,160.754,84.362,159.231z M45.963,99.561c0-16.065,13.023-29.088,29.088-29.088
		c16.064,0,29.088,13.023,29.088,29.088c0,16.066-13.022,29.087-29.088,29.087C58.985,128.649,45.963,115.627,45.963,99.561z"/>
	<g>
		<g>
			<polyline fill="#FFFAC2" points="144.411,106.727 158.913,121.229 171.496,127.606 178.108,127.108 182.718,122.928 
				178.349,126.025 173.003,126.099 161.927,118.214 147.426,103.713 			"/>
			<polyline fill="#FFFAC2" points="147.426,95.413 161.927,80.912 173.003,73.027 178.349,73.101 182.718,76.198 178.108,72.018 
				171.496,71.52 158.913,77.897 144.411,92.399 			"/>
			<polygon fill="#FFFAC2" points="128.491,86.659 130.85,81.542 128.918,76.782 123.673,71.148 131.749,73.969 134.617,80.152 
				138.524,79.189 142.162,79.099 143.42,81.43 140.541,80.485 137.353,81.398 133.718,83.76 130.932,88.232 119.377,93.061 			"/>
			<polygon fill="#FFFAC2" points="119.377,106.065 130.932,110.894 133.718,115.366 137.353,117.728 140.541,118.641 
				143.42,117.696 142.162,120.027 138.524,119.937 134.617,118.974 131.749,125.157 123.673,127.978 128.918,122.344 
				130.85,117.584 128.491,112.467 			"/>
		</g>
		<polygon fill="#989498" points="166.783,88.029 186.194,99.563 166.783,111.097 127.961,111.097 108.55,99.563 127.961,88.029 		
			"/>
	</g>
</g>
</svg>
