<?xml version="1.0" encoding="utf-8"?>
<!-- Generator: Adobe Illustrator 17.0.0, SVG Export Plug-In . SVG Version: 6.00 Build 0)  -->
<!DOCTYPE svg PUBLIC "-//W3C//DTD SVG 1.1//EN" "http://www.w3.org/Graphics/SVG/1.1/DTD/svg11.dtd">
<svg version="1.1" id="Calque_1" xmlns="http://www.w3.org/2000/svg" xmlns:xlink="http://www.w3.org/1999/xlink" x="0px" y="0px"
	 width="12px" height="12px" viewBox="0 0 12 12" enable-background="new 0 0 12 12" xml:space="preserve">
<path d="M9,5c0-0.004,0-0.007,0-0.011c0-2.494-1.243-4.516-3-4.516S3,2.495,3,4.989C3,4.993,3,4.996,3,5H9z"/>
<rect x="3" y="6" width="6" height="5"/>
<path d="M3.938,11.286C4.5,11.412,5.25,11.496,6,11.5c0.75-0.003,1.5-0.085,2.063-0.213C8.625,11.168,9,11,9,11H3
	C3,11,3.375,11.167,3.938,11.286z"/>
</svg>
