<?xml version="1.0" encoding="utf-8"?>
<!-- Generator: Adobe Illustrator 17.0.0, SVG Export Plug-In . SVG Version: 6.00 Build 0)  -->
<!DOCTYPE svg PUBLIC "-//W3C//DTD SVG 1.1//EN" "http://www.w3.org/Graphics/SVG/1.1/DTD/svg11.dtd">
<svg version="1.1" xmlns="http://www.w3.org/2000/svg" xmlns:xlink="http://www.w3.org/1999/xlink" x="0px" y="0px" width="200px"
	 height="70px" viewBox="0 0 200 70" enable-background="new 0 0 200 70" xml:space="preserve">
<g id="Calque_2">
	<g>
		<defs>
			<rect id="SVGID_1_" y="33" width="44" height="38"/>
		</defs>
		<clipPath id="SVGID_2_">
			<use xlink:href="#SVGID_1_"  overflow="visible"/>
		</clipPath>
		<g clip-path="url(#SVGID_2_)">
			<path fill="#603813" d="M37.605,38.784h-3.174c-0.595-3.156-1.874-6.149-3.742-8.757l2.203-2.203
				c0.214-0.215,0.335-0.504,0.335-0.809c0-0.303-0.12-0.595-0.335-0.81l-3.845-3.844c-0.447-0.447-1.172-0.447-1.619,0L25.16,24.63
				c-2.585-1.768-5.52-2.969-8.588-3.513v-3.222c0-0.632-0.513-1.145-1.144-1.145H9.991c-0.632,0-1.144,0.512-1.144,1.145v3.222
				c-3.093,0.549-6.049,1.764-8.649,3.553l-2.208-2.206c-0.447-0.447-1.171-0.447-1.619,0l-3.844,3.844
				c-0.215,0.215-0.335,0.505-0.335,0.81s0.12,0.595,0.335,0.809l2.162,2.162c-1.845,2.595-3.11,5.567-3.701,8.696h-2.885
				c-0.632,0-1.145,0.511-1.145,1.144v5.436c0,0.633,0.513,1.145,1.145,1.145h2.789c0.525,3.152,1.742,6.17,3.561,8.828
				l-2.028,2.027c-0.447,0.447-0.447,1.171,0,1.619l3.845,3.846c0.215,0.215,0.506,0.335,0.809,0.335s0.595-0.121,0.809-0.335
				l1.964-1.962c2.679,1.918,5.755,3.215,8.995,3.788v2.743c0,0.632,0.512,1.145,1.144,1.145h5.437c0.632,0,1.144-0.512,1.144-1.145
				v-2.743c3.214-0.569,6.268-1.85,8.935-3.747l2.024,2.023c0.43,0.429,1.19,0.429,1.619,0l3.844-3.845
				c0.447-0.448,0.447-1.171,0-1.619l-2.069-2.07c1.842-2.674,3.073-5.71,3.602-8.888h3.078c0.632,0,1.145-0.511,1.145-1.144v-5.436
				C38.749,39.295,38.237,38.784,37.605,38.784z M12.853,54.713c-6.664,0-12.066-5.402-12.066-12.066
				c0-6.664,5.402-12.066,12.066-12.066c6.664,0,12.066,5.402,12.066,12.066C24.919,49.311,19.518,54.713,12.853,54.713z
				 M17.431,42.647c0,2.529-2.05,4.578-4.578,4.578c-2.528,0-4.578-2.05-4.578-4.578c0-2.528,2.05-4.578,4.578-4.578
				C15.381,38.069,17.431,40.118,17.431,42.647z"/>
		</g>
	</g>
	<g>
		<polygon fill="#754C24" points="165,18 135.667,20 16.688,20 7.083,18.167 4,4 182.25,4 198.833,7.917 193.25,4 175.167,0 4,0 
			0,4 0,20 4,24 135.667,24 165,20 174.458,15.417 175.125,9.75 173.156,14.563 		"/>
		<polyline fill="#754C24" points="37,23 71.637,23 94.281,19.912 101.582,16.374 102.096,12 100.577,15.715 94.281,18.412 
			71.637,20 37,20 		"/>
		<polygon fill="#754C24" points="5.917,30.792 4,24 0,22.25 0,30.25 4,34 127,34 134.25,29 124.469,32 115.188,32 9.583,32 		"/>
		<polygon fill="#754C24" points="29.438,33.313 41.625,33.438 45.774,36.451 49.917,37.25 53.125,36.906 55.375,35 55.094,37.563 
			51.781,38.813 47.906,39.375 47.583,46 41.333,51.5 44,44.5 44,39.5 40,35.75 		"/>
		<polygon fill="#754C24" points="4,34 1.417,35.917 0,38.792 0,29 4,29 		"/>
	</g>
	<rect fill="#754C24" width="4" height="26"/>
</g>
<g id="Calque_1" display="none">
	<g display="inline">
		<g>
			<g>
				<path fill="#FF0000" d="M4,4.375c0.484,0,0.484-0.75,0-0.75S3.516,4.375,4,4.375L4,4.375z"/>
			</g>
		</g>
		<g>
			<g>
				<path fill="#FF0000" d="M4,20.375c0.484,0,0.484-0.75,0-0.75S3.516,20.375,4,20.375L4,20.375z"/>
			</g>
		</g>
		<g>
			<g>
				<path fill="#FF0000" d="M4,24.375c0.484,0,0.484-0.75,0-0.75S3.516,24.375,4,24.375L4,24.375z"/>
			</g>
		</g>
		<g>
			<g>
				<path fill="#FF0000" d="M4,32.375c0.484,0,0.484-0.75,0-0.75S3.516,32.375,4,32.375L4,32.375z"/>
			</g>
		</g>
		<g>
			<g>
				<g>
					<path fill="#FF0000" d="M52,40.375c0.484,0,0.484-0.75,0-0.75S51.516,40.375,52,40.375L52,40.375z"/>
				</g>
			</g>
			<g>
				<g>
					<path fill="#FF0000" d="M52,52.375c0.484,0,0.484-0.75,0-0.75S51.516,52.375,52,52.375L52,52.375z"/>
				</g>
			</g>
			<g>
				<g>
					<path fill="#FF0000" d="M64,40.375c0.484,0,0.484-0.75,0-0.75S63.516,40.375,64,40.375L64,40.375z"/>
				</g>
			</g>
			<g>
				<g>
					<path fill="#FF0000" d="M64,52.375c0.484,0,0.484-0.75,0-0.75S63.516,52.375,64,52.375L64,52.375z"/>
				</g>
			</g>
		</g>
		<g>
			<g>
				<g>
					<path fill="#FF0000" d="M66,40.375c0.484,0,0.484-0.75,0-0.75S65.516,40.375,66,40.375L66,40.375z"/>
				</g>
			</g>
			<g>
				<g>
					<path fill="#FF0000" d="M66,52.375c0.484,0,0.484-0.75,0-0.75S65.516,52.375,66,52.375L66,52.375z"/>
				</g>
			</g>
			<g>
				<g>
					<path fill="#FF0000" d="M78,40.375c0.484,0,0.484-0.75,0-0.75S77.516,40.375,78,40.375L78,40.375z"/>
				</g>
			</g>
			<g>
				<g>
					<path fill="#FF0000" d="M78,52.375c0.484,0,0.484-0.75,0-0.75S77.516,52.375,78,52.375L78,52.375z"/>
				</g>
			</g>
		</g>
	</g>
	<g display="inline">
		<rect x="4" y="4" fill="#1A1A1A" width="200" height="16"/>
		<rect x="4" y="24" fill="#1A1A1A" width="120" height="8"/>
		<rect x="52" y="40" fill="#1A1A1A" width="12" height="12"/>
	</g>
</g>
</svg>
