<?xml version="1.0" encoding="utf-8"?>
<!-- Generator: Adobe Illustrator 17.0.0, SVG Export Plug-In . SVG Version: 6.00 Build 0)  -->
<!DOCTYPE svg PUBLIC "-//W3C//DTD SVG 1.1//EN" "http://www.w3.org/Graphics/SVG/1.1/DTD/svg11.dtd">
<svg version="1.1" id="Layer_1" xmlns="http://www.w3.org/2000/svg" xmlns:xlink="http://www.w3.org/1999/xlink" x="0px" y="0px"
	 width="32px" height="32px" viewBox="16 0 32 32" enable-background="new 16 0 32 32" xml:space="preserve">
<path fill="#FFA05A" d="M31.547,0.756c-6.731,0.239-11.969,5.976-11.969,12.711v17.595c0,0.166,0.204,0.246,0.317,0.123l3.407-3.717
	c0.224-0.244,0.609-0.244,0.832,0l3.297,3.597c0.23,0.251,0.625,0.251,0.855,0l3.297-3.597c0.224-0.244,0.609-0.244,0.832,0
	l3.297,3.597c0.23,0.251,0.625,0.251,0.855,0l3.297-3.597c0.224-0.244,0.609-0.244,0.832,0l3.407,3.717
	c0.112,0.123,0.317,0.043,0.317-0.123V13.169C44.422,6.159,38.614,0.504,31.547,0.756z"/>
<path fill="#F08C46" d="M25.789,14.31c0-6.387,4.711-11.873,10.938-12.627c-1.589-0.655-3.341-0.992-5.181-0.927
	c-6.731,0.239-11.969,5.976-11.969,12.711v17.595c0,0.166,0.204,0.246,0.317,0.123l3.407-3.717c0.224-0.244,0.609-0.244,0.832,0
	l1.654,1.804L25.789,14.31L25.789,14.31z"/>
<path fill="#FFFFFF" d="M27.852,18.815L27.852,18.815c-1.847,0-3.344-1.497-3.344-3.344v-1.216c0-1.847,1.497-3.344,3.344-3.344l0,0
	c1.847,0,3.344,1.497,3.344,3.344v1.216C31.197,17.318,29.699,18.815,27.852,18.815z"/>
<path fill="#E4EAF6" d="M29.676,18.207c-1.847,0-3.344-1.497-3.344-3.344v-1.216c0-1.129,0.561-2.126,1.418-2.731
	c-1.799,0.054-3.242,1.526-3.242,3.339v1.216c0,1.847,1.497,3.344,3.344,3.344c0.718,0,1.381-0.228,1.926-0.613
	C29.744,18.203,29.711,18.207,29.676,18.207z"/>
<path fill="#82B9FF" d="M28.764,16.383L28.764,16.383c-0.672,0-1.216-0.544-1.216-1.216v-0.608c0-0.672,0.544-1.216,1.216-1.216l0,0
	c0.672,0,1.216,0.544,1.216,1.216v0.608C29.981,15.839,29.436,16.383,28.764,16.383z"/>
<path fill="#FFFFFF" d="M36.148,18.815L36.148,18.815c-1.847,0-3.344-1.497-3.344-3.344v-1.216c0-1.847,1.497-3.344,3.344-3.344l0,0
	c1.847,0,3.344,1.497,3.344,3.344v1.216C39.492,17.318,37.995,18.815,36.148,18.815z"/>
<path fill="#E4EAF6" d="M37.972,18.207c-1.847,0-3.344-1.497-3.344-3.344v-1.216c0-1.129,0.561-2.126,1.418-2.731
	c-1.799,0.054-3.242,1.526-3.242,3.339v1.216c0,1.847,1.497,3.344,3.344,3.344c0.718,0,1.381-0.228,1.926-0.613
	C38.04,18.203,38.006,18.207,37.972,18.207z"/>
<path fill="#82B9FF" d="M37.06,16.383L37.06,16.383c-0.672,0-1.216-0.544-1.216-1.216v-0.608c0-0.672,0.544-1.216,1.216-1.216l0,0
	c0.672,0,1.216,0.544,1.216,1.216v0.608C38.276,15.839,37.732,16.383,37.06,16.383z"/>
</svg>
