<?xml version="1.0" encoding="utf-8"?>
<!-- Generator: Adobe Illustrator 17.0.0, SVG Export Plug-In . SVG Version: 6.00 Build 0)  -->
<!DOCTYPE svg PUBLIC "-//W3C//DTD SVG 1.1//EN" "http://www.w3.org/Graphics/SVG/1.1/DTD/svg11.dtd">
<svg version="1.1" id="Calque_1" xmlns="http://www.w3.org/2000/svg" xmlns:xlink="http://www.w3.org/1999/xlink" x="0px" y="0px"
	 width="200px" height="200px" viewBox="0 0 200 200" enable-background="new 0 0 200 200" xml:space="preserve">
<g>
	<circle fill="#CDA349" cx="100.793" cy="99.288" r="84.941"/>
	<g>
		<path fill="#E2C675" d="M172.598,87.923h-9.231c-1.732-9.181-5.452-17.886-10.886-25.472l6.409-6.409
			c0.624-0.624,0.974-1.468,0.974-2.354c0-0.883-0.351-1.73-0.974-2.355l-11.183-11.181c-1.301-1.3-3.408-1.3-4.709,0l-6.598,6.598
			c-7.519-5.141-16.057-8.636-24.981-10.219v-9.372c0-1.839-1.492-3.329-3.329-3.329H92.273c-1.838,0-3.328,1.49-3.328,3.329v9.372
			c-8.998,1.597-17.596,5.132-25.16,10.335l-6.423-6.417c-1.3-1.302-3.406-1.302-4.709,0l-11.18,11.183
			c-0.624,0.625-0.975,1.47-0.975,2.355s0.351,1.73,0.975,2.354l6.288,6.289c-5.367,7.55-9.048,16.193-10.765,25.294h-8.393
			c-1.837,0-3.33,1.487-3.33,3.329v15.814c0,1.841,1.492,3.33,3.33,3.33h8.113c1.528,9.17,5.069,17.948,10.358,25.678l-5.898,5.897
			c-1.3,1.301-1.3,3.407,0,4.708l11.183,11.187c0.624,0.624,1.472,0.974,2.355,0.974c0.883,0,1.73-0.352,2.354-0.974l5.712-5.709
			c7.794,5.58,16.74,9.352,26.165,11.019v7.979c0,1.839,1.491,3.33,3.329,3.33h15.816c1.837,0,3.327-1.49,3.327-3.33v-7.979
			c9.35-1.654,18.234-5.383,25.99-10.9l5.887,5.884c1.25,1.248,3.461,1.248,4.708,0l11.183-11.184c1.301-1.302,1.301-3.406,0-4.708
			l-6.018-6.021c5.357-7.778,8.939-16.611,10.479-25.854h8.954c1.838,0,3.33-1.486,3.33-3.327V91.25
			C175.928,89.409,174.436,87.923,172.598,87.923z M100.601,134.256c-19.384,0-35.097-15.713-35.097-35.098
			c0-19.383,15.713-35.098,35.097-35.098c19.385,0,35.097,15.712,35.097,35.098C135.697,118.543,119.985,134.256,100.601,134.256z"
			/>
	</g>
	<g>
		<polygon fill="#E2C675" points="42.652,145.532 38.075,149.823 38.075,155.545 41.127,163.556 33.974,157.262 33.605,149.68 
			29.171,149.037 25.379,147.607 25.058,144.674 27.633,146.855 31.303,147.249 36.044,146.335 40.793,142.886 54.74,142.743 		"/>
		<polygon fill="#E2C675" points="146.487,156.889 150.778,161.467 156.499,161.467 164.51,158.415 158.216,165.567 
			150.635,165.937 149.992,170.371 148.561,174.162 145.628,174.484 147.809,171.908 148.203,168.238 147.289,163.497 
			143.84,158.748 143.697,144.802 		"/>
	</g>
	<g>
		<polygon fill="#E2C675" points="157.349,52.781 161.927,48.49 161.927,42.768 158.874,34.757 166.027,41.052 166.397,48.633 
			170.831,49.276 174.622,50.706 174.944,53.64 172.368,51.458 168.698,51.064 163.957,51.978 159.208,55.427 145.262,55.57 		"/>
		<polygon fill="#E2C675" points="53.515,41.424 49.224,36.846 43.502,36.846 35.491,39.899 41.785,32.746 49.367,32.376 
			50.01,27.942 51.44,24.151 54.373,23.829 52.192,26.405 51.798,30.075 52.712,34.816 56.161,39.565 56.304,53.511 		"/>
	</g>
	<g>
		<g>
			<path fill="#7D8589" d="M33.271,127.615l-0.484,1.038c-1.123-0.287-2.296-0.325-3.433-0.112l-0.385-1.056
				c-0.038-0.102-0.113-0.186-0.213-0.232c-0.1-0.046-0.213-0.052-0.315-0.014l-1.843,0.671c-0.214,0.078-0.325,0.315-0.247,0.529
				l0.396,1.088c-0.972,0.576-1.813,1.352-2.457,2.272l-1.053-0.491c-0.207-0.097-0.452-0.006-0.549,0.199l-0.829,1.777
				c-0.096,0.207-0.007,0.452,0.2,0.549l1.053,0.491c-0.292,1.095-0.345,2.247-0.157,3.37l-1.058,0.386
				c-0.214,0.077-0.325,0.315-0.247,0.529l0.671,1.843c0.038,0.103,0.114,0.186,0.214,0.233c0.1,0.046,0.213,0.052,0.315,0.014
				l1.037-0.377c0.567,0.999,1.346,1.865,2.278,2.536l-0.44,0.944c-0.096,0.207-0.007,0.452,0.199,0.549l1.777,0.828
				c0.207,0.097,0.452,0.006,0.549-0.2l0.425-0.912c1.111,0.309,2.283,0.371,3.429,0.182l0.353,0.972
				c0.078,0.214,0.315,0.325,0.529,0.246l1.844-0.671c0.103-0.038,0.186-0.114,0.232-0.214s0.051-0.213,0.014-0.315l-0.342-0.941
				c1.036-0.584,1.929-1.391,2.609-2.363l0.897,0.418c0.207,0.097,0.452,0.007,0.549-0.199l0.829-1.777
				c0.096-0.207,0.006-0.452-0.2-0.549l-0.897-0.418c0.304-1.137,0.351-2.331,0.137-3.492l0.969-0.353
				c0.206-0.075,0.322-0.324,0.246-0.529l-0.671-1.843c-0.078-0.214-0.315-0.325-0.529-0.247l-0.993,0.361
				c-0.593-1.01-1.398-1.875-2.357-2.533l0.47-1.006c0.096-0.207,0.007-0.452-0.199-0.549l-1.776-0.828
				C33.612,127.318,33.367,127.409,33.271,127.615z M34.705,138.135c-1.016,2.179-3.606,3.121-5.784,2.105
				c-2.179-1.016-3.121-3.606-2.105-5.784c1.016-2.179,3.606-3.121,5.784-2.105C34.778,133.367,35.721,135.956,34.705,138.135z"/>
		</g>
		<g>
			<path fill="#7D8589" d="M35.449,114.727l-0.577,0.577c-0.684-0.466-1.461-0.779-2.276-0.913v-0.802
				c0-0.078-0.03-0.153-0.087-0.208c-0.055-0.055-0.13-0.087-0.208-0.087h-1.4c-0.162,0-0.294,0.132-0.295,0.295v0.826
				c-0.792,0.149-1.546,0.465-2.204,0.924l-0.587-0.587c-0.115-0.115-0.302-0.115-0.417,0l-0.99,0.99
				c-0.115,0.115-0.115,0.302,0,0.417l0.587,0.587c-0.463,0.663-0.78,1.422-0.928,2.222h-0.803c-0.162,0-0.294,0.132-0.295,0.295
				v1.4c0,0.078,0.031,0.153,0.087,0.208c0.055,0.055,0.13,0.087,0.208,0.087h0.787c0.137,0.809,0.447,1.58,0.909,2.257
				l-0.526,0.526c-0.115,0.115-0.115,0.302,0,0.417l0.99,0.99c0.115,0.115,0.302,0.115,0.417,0l0.508-0.508
				c0.67,0.479,1.441,0.806,2.255,0.959v0.738c0,0.162,0.132,0.294,0.294,0.294h1.4c0.078,0,0.153-0.031,0.208-0.087
				c0.055-0.055,0.086-0.13,0.087-0.208v-0.715c0.838-0.138,1.634-0.462,2.327-0.948l0.499,0.499c0.115,0.115,0.302,0.115,0.417,0
				l0.99-0.99c0.115-0.115,0.115-0.302,0-0.417l-0.499-0.499c0.481-0.689,0.804-1.479,0.945-2.309h0.737
				c0.157,0,0.295-0.138,0.294-0.294v-1.4c0-0.163-0.132-0.294-0.294-0.294h-0.754c-0.151-0.822-0.481-1.599-0.962-2.275
				l0.561-0.561c0.115-0.115,0.115-0.302,0-0.417l-0.99-0.99C35.751,114.611,35.565,114.611,35.449,114.727z M33.843,122.134
				c-1.213,1.213-3.18,1.213-4.393,0c-1.213-1.213-1.213-3.18,0-4.393c1.213-1.213,3.18-1.213,4.393,0
				C35.056,118.953,35.056,120.921,33.843,122.134z"/>
		</g>
	</g>
	<g>
		<g>
			<path fill="#7D8589" d="M166.729,70.644l0.484-1.038c1.123,0.287,2.296,0.325,3.433,0.112l0.385,1.056
				c0.038,0.102,0.113,0.186,0.213,0.232c0.1,0.046,0.213,0.052,0.315,0.014l1.843-0.671c0.214-0.078,0.325-0.315,0.247-0.529
				l-0.396-1.088c0.972-0.576,1.813-1.352,2.457-2.272l1.053,0.491c0.207,0.097,0.452,0.006,0.549-0.199l0.829-1.777
				c0.096-0.207,0.007-0.452-0.2-0.549l-1.053-0.491c0.292-1.095,0.345-2.247,0.157-3.37l1.058-0.386
				c0.214-0.077,0.325-0.315,0.247-0.529l-0.671-1.843c-0.038-0.103-0.114-0.186-0.214-0.233c-0.1-0.046-0.213-0.052-0.315-0.014
				l-1.037,0.377c-0.567-0.999-1.346-1.865-2.278-2.536l0.44-0.944c0.096-0.207,0.007-0.452-0.199-0.549l-1.777-0.828
				c-0.207-0.097-0.452-0.006-0.549,0.2l-0.425,0.912c-1.111-0.309-2.283-0.371-3.429-0.182l-0.353-0.972
				c-0.078-0.214-0.315-0.325-0.529-0.246l-1.844,0.671c-0.103,0.038-0.186,0.114-0.232,0.214c-0.046,0.1-0.051,0.213-0.014,0.315
				l0.342,0.941c-1.036,0.584-1.929,1.391-2.609,2.363l-0.897-0.418c-0.207-0.097-0.452-0.007-0.549,0.199l-0.829,1.777
				c-0.096,0.207-0.006,0.452,0.2,0.549l0.897,0.418c-0.304,1.137-0.351,2.331-0.137,3.492l-0.969,0.353
				c-0.206,0.075-0.322,0.324-0.246,0.529l0.671,1.843c0.078,0.214,0.315,0.325,0.529,0.247l0.993-0.361
				c0.593,1.01,1.398,1.875,2.357,2.533l-0.469,1.006c-0.096,0.207-0.007,0.452,0.199,0.549l1.776,0.828
				C166.388,70.941,166.633,70.851,166.729,70.644z M165.295,60.125c1.016-2.179,3.606-3.121,5.784-2.105
				c2.179,1.016,3.121,3.606,2.105,5.784c-1.016,2.179-3.606,3.121-5.784,2.105C165.222,64.893,164.279,62.304,165.295,60.125z"/>
		</g>
		<g>
			<path fill="#7D8589" d="M164.551,83.533l0.577-0.577c0.684,0.466,1.461,0.779,2.276,0.913v0.802c0,0.078,0.03,0.153,0.087,0.208
				c0.055,0.055,0.13,0.087,0.208,0.087h1.4c0.162,0,0.294-0.132,0.295-0.295v-0.826c0.792-0.149,1.546-0.465,2.204-0.924
				l0.587,0.587c0.115,0.115,0.302,0.115,0.417,0l0.99-0.99c0.115-0.115,0.115-0.302,0-0.417l-0.587-0.587
				c0.463-0.663,0.78-1.422,0.928-2.222h0.803c0.162,0,0.294-0.132,0.295-0.295v-1.4c0-0.078-0.031-0.153-0.087-0.208
				c-0.055-0.055-0.13-0.087-0.208-0.087h-0.787c-0.137-0.809-0.447-1.58-0.909-2.257l0.526-0.526c0.115-0.115,0.115-0.302,0-0.417
				l-0.99-0.99c-0.115-0.115-0.302-0.115-0.417,0l-0.508,0.508c-0.67-0.479-1.441-0.806-2.255-0.959v-0.738
				c0-0.162-0.132-0.294-0.294-0.294h-1.4c-0.078,0-0.153,0.031-0.208,0.087c-0.055,0.055-0.086,0.13-0.087,0.208v0.715
				c-0.838,0.138-1.634,0.462-2.327,0.948l-0.499-0.499c-0.115-0.115-0.302-0.115-0.417,0l-0.99,0.99
				c-0.115,0.115-0.115,0.302,0,0.417l0.499,0.499c-0.481,0.689-0.804,1.479-0.945,2.309h-0.737c-0.157,0-0.295,0.138-0.294,0.294
				v1.4c0,0.163,0.132,0.294,0.294,0.294h0.754c0.151,0.822,0.481,1.599,0.962,2.275l-0.561,0.561c-0.115,0.115-0.115,0.302,0,0.417
				l0.99,0.99C164.249,83.648,164.435,83.648,164.551,83.533z M166.157,76.126c1.213-1.213,3.18-1.213,4.393,0
				c1.213,1.213,1.213,3.18,0,4.393c-1.213,1.213-3.18,1.213-4.393,0C164.944,79.306,164.944,77.339,166.157,76.126z"/>
		</g>
	</g>
	<g>
		<g>
			<path fill="#7D8589" d="M71.412,32.691l-1.038-0.484c0.287-1.123,0.325-2.296,0.112-3.433l1.056-0.385
				c0.102-0.038,0.186-0.113,0.232-0.213c0.046-0.1,0.052-0.213,0.014-0.315l-0.671-1.843c-0.078-0.214-0.315-0.325-0.529-0.247
				l-1.088,0.396c-0.576-0.972-1.352-1.813-2.272-2.457l0.491-1.053c0.097-0.207,0.006-0.452-0.199-0.549l-1.777-0.829
				c-0.207-0.096-0.452-0.007-0.549,0.2l-0.491,1.053c-1.095-0.292-2.247-0.345-3.37-0.157l-0.386-1.058
				c-0.077-0.214-0.315-0.325-0.529-0.247l-1.843,0.671c-0.103,0.038-0.186,0.114-0.233,0.214c-0.046,0.1-0.052,0.213-0.014,0.315
				l0.377,1.037c-0.999,0.567-1.865,1.346-2.536,2.278l-0.944-0.44c-0.207-0.096-0.452-0.007-0.549,0.199L53.85,27.12
				c-0.097,0.207-0.006,0.452,0.2,0.549l0.912,0.425c-0.309,1.111-0.371,2.283-0.182,3.429l-0.972,0.353
				c-0.214,0.078-0.325,0.315-0.246,0.529l0.671,1.844c0.038,0.103,0.114,0.186,0.214,0.232s0.213,0.051,0.315,0.014l0.941-0.342
				c0.584,1.036,1.391,1.929,2.363,2.609l-0.418,0.897c-0.097,0.207-0.007,0.452,0.199,0.549l1.777,0.829
				c0.207,0.096,0.452,0.006,0.549-0.2l0.418-0.897c1.137,0.304,2.331,0.351,3.492,0.137l0.353,0.969
				c0.075,0.206,0.324,0.322,0.529,0.246l1.843-0.671c0.214-0.078,0.325-0.315,0.247-0.529l-0.361-0.993
				c1.01-0.593,1.875-1.398,2.533-2.357l1.006,0.47c0.207,0.096,0.452,0.007,0.549-0.199l0.828-1.776
				C71.709,33.032,71.619,32.788,71.412,32.691z M60.893,34.125c-2.179-1.016-3.121-3.606-2.105-5.784
				c1.016-2.179,3.606-3.121,5.784-2.105c2.179,1.016,3.121,3.606,2.105,5.784C65.661,34.198,63.072,35.141,60.893,34.125z"/>
		</g>
		<g>
			<path fill="#7D8589" d="M84.301,34.869l-0.577-0.577c0.466-0.684,0.779-1.461,0.913-2.276h0.802c0.078,0,0.153-0.03,0.208-0.087
				c0.055-0.055,0.087-0.13,0.087-0.208v-1.4c0-0.162-0.132-0.294-0.295-0.295h-0.826c-0.149-0.792-0.465-1.546-0.924-2.204
				l0.587-0.587c0.115-0.115,0.115-0.302,0-0.417l-0.99-0.99c-0.115-0.115-0.302-0.115-0.417,0l-0.587,0.587
				c-0.663-0.463-1.422-0.78-2.222-0.928v-0.803c0-0.162-0.132-0.294-0.295-0.295h-1.4c-0.078,0-0.153,0.031-0.208,0.087
				c-0.055,0.055-0.087,0.13-0.087,0.208v0.787c-0.809,0.137-1.58,0.447-2.257,0.909l-0.526-0.526c-0.115-0.115-0.302-0.115-0.417,0
				l-0.99,0.99c-0.115,0.115-0.115,0.302,0,0.417l0.508,0.508c-0.479,0.67-0.806,1.441-0.959,2.255h-0.738
				c-0.162,0-0.294,0.132-0.294,0.294v1.4c0,0.078,0.031,0.153,0.087,0.208c0.055,0.055,0.13,0.086,0.208,0.087h0.715
				c0.138,0.838,0.462,1.634,0.948,2.327l-0.499,0.499c-0.115,0.115-0.115,0.302,0,0.417l0.99,0.99c0.115,0.115,0.302,0.115,0.417,0
				l0.499-0.499c0.689,0.481,1.479,0.804,2.309,0.945v0.737c0,0.157,0.138,0.295,0.294,0.294h1.4c0.163,0,0.294-0.132,0.294-0.294
				v-0.754c0.822-0.151,1.599-0.481,2.275-0.962l0.561,0.561c0.115,0.115,0.302,0.115,0.417,0l0.99-0.99
				C84.416,35.171,84.416,34.985,84.301,34.869z M76.894,33.263c-1.213-1.213-1.213-3.18,0-4.393s3.18-1.213,4.393,0
				c1.213,1.213,1.213,3.18,0,4.393C80.075,34.476,78.107,34.476,76.894,33.263z"/>
		</g>
	</g>
	<g>
		<g>
			<path fill="#7D8589" d="M128.461,171.125l0.828,1.777c0.097,0.207,0.342,0.296,0.549,0.199l1.006-0.47
				c0.658,0.958,1.523,1.764,2.533,2.357l-0.361,0.993c-0.077,0.215,0.032,0.451,0.247,0.529l1.843,0.671
				c0.206,0.075,0.454-0.041,0.529-0.247l0.353-0.969c1.16,0.214,2.355,0.167,3.492-0.137l0.418,0.897
				c0.097,0.207,0.342,0.296,0.549,0.2l1.777-0.829c0.207-0.096,0.296-0.342,0.199-0.549l-0.418-0.897
				c0.972-0.682,1.779-1.575,2.363-2.609l0.941,0.342c0.102,0.037,0.217,0.032,0.315-0.014c0.1-0.046,0.176-0.13,0.214-0.232
				l0.671-1.844c0.077-0.214-0.032-0.451-0.246-0.529l-0.972-0.353c0.189-1.146,0.127-2.318-0.182-3.429l0.912-0.425
				c0.207-0.096,0.296-0.341,0.2-0.549l-0.828-1.777c-0.097-0.207-0.342-0.296-0.549-0.199l-0.944,0.44
				c-0.67-0.933-1.537-1.711-2.536-2.278l0.377-1.037c0.038-0.103,0.032-0.216-0.014-0.315c-0.046-0.1-0.13-0.176-0.233-0.214
				l-1.843-0.671c-0.215-0.078-0.451,0.032-0.529,0.247l-0.386,1.058c-1.123-0.188-2.275-0.135-3.37,0.157l-0.491-1.053
				c-0.097-0.207-0.342-0.296-0.549-0.2l-1.777,0.829c-0.207,0.096-0.296,0.342-0.199,0.549l0.491,1.053
				c-0.92,0.646-1.696,1.486-2.272,2.457l-1.088-0.396c-0.214-0.077-0.451,0.032-0.529,0.247l-0.671,1.843
				c-0.038,0.103-0.032,0.217,0.014,0.315c0.046,0.1,0.13,0.176,0.232,0.213l1.056,0.385c-0.213,1.137-0.175,2.311,0.112,3.433
				l-1.038,0.484C128.454,170.673,128.364,170.919,128.461,171.125z M133.397,169.906c-1.016-2.179-0.074-4.768,2.105-5.784
				c2.179-1.016,4.768-0.073,5.784,2.105c1.016,2.179,0.074,4.768-2.105,5.784C137.001,173.027,134.412,172.085,133.397,169.906z"/>
		</g>
		<g>
			<path fill="#7D8589" d="M115.772,173.172l0.99,0.99c0.115,0.115,0.302,0.115,0.417,0l0.561-0.561
				c0.675,0.482,1.452,0.811,2.275,0.962v0.754c0,0.163,0.132,0.294,0.294,0.295h1.4c0.156,0,0.294-0.138,0.294-0.295v-0.737
				c0.831-0.14,1.621-0.463,2.309-0.945l0.499,0.499c0.115,0.115,0.302,0.115,0.417,0l0.99-0.99c0.115-0.115,0.115-0.302,0-0.417
				l-0.499-0.499c0.486-0.695,0.81-1.491,0.948-2.327h0.715c0.078,0,0.153-0.031,0.208-0.087c0.055-0.055,0.087-0.13,0.087-0.208
				v-1.4c0-0.162-0.132-0.294-0.294-0.294h-0.738c-0.153-0.815-0.481-1.586-0.959-2.255l0.508-0.508
				c0.115-0.115,0.115-0.302,0-0.417l-0.99-0.99c-0.115-0.115-0.302-0.115-0.417,0l-0.526,0.526
				c-0.677-0.462-1.448-0.773-2.257-0.909v-0.788c0-0.078-0.031-0.153-0.087-0.208c-0.055-0.055-0.13-0.087-0.208-0.087h-1.4
				c-0.163,0-0.295,0.132-0.295,0.295v0.803c-0.799,0.148-1.559,0.465-2.222,0.928l-0.587-0.587c-0.115-0.115-0.302-0.115-0.417,0
				l-0.99,0.99c-0.115,0.115-0.115,0.302,0,0.417l0.587,0.587c-0.459,0.658-0.775,1.41-0.924,2.204h-0.826
				c-0.162,0-0.294,0.132-0.295,0.295v1.4c0,0.078,0.031,0.153,0.087,0.208c0.055,0.055,0.13,0.087,0.208,0.087h0.802
				c0.135,0.814,0.446,1.593,0.913,2.276l-0.577,0.577C115.657,172.87,115.657,173.057,115.772,173.172z M118.786,171.149
				c-1.214-1.214-1.214-3.18,0-4.393c1.213-1.213,3.18-1.213,4.393,0c1.213,1.213,1.213,3.18,0,4.393
				C121.966,172.362,119.999,172.362,118.786,171.149z"/>
		</g>
	</g>
	<circle fill="#00DEEA" cx="100.793" cy="99.288" r="47.031"/>
	<polygon fill="#E9E9EA" points="91.129,16.424 100.417,0.793 109.705,16.424 109.705,47.688 100.417,63.32 91.13,47.688 	"/>
	<polygon fill="#E9E9EA" points="91.129,152.311 100.417,136.68 109.705,152.311 109.705,183.575 100.417,199.207 91.13,183.575 	
		"/>
	<polygon fill="#E9E9EA" points="47.269,89.868 62.9,99.156 47.269,108.444 16.005,108.445 0.373,99.156 16.005,89.869 	"/>
	<polygon fill="#E9E9EA" points="183.996,89.868 199.627,99.156 183.996,108.444 152.732,108.445 137.1,99.156 152.732,89.869 	"/>
</g>
</svg>
