<?xml version="1.0" encoding="utf-8"?>
<!-- Generator: Adobe Illustrator 17.0.0, SVG Export Plug-In . SVG Version: 6.00 Build 0)  -->
<!DOCTYPE svg PUBLIC "-//W3C//DTD SVG 1.1//EN" "http://www.w3.org/Graphics/SVG/1.1/DTD/svg11.dtd">
<svg version="1.1" id="Calque_1" xmlns="http://www.w3.org/2000/svg" xmlns:xlink="http://www.w3.org/1999/xlink" x="0px" y="0px"
	 width="40px" height="40px" viewBox="0 0 40 40" enable-background="new 0 0 40 40" xml:space="preserve">
<g>
	<g>
		<path fill="#485654" d="M37.821,17.22h-2.285l-2.695-6.305l1.827-2.169l-3.009-3.351h-1.166L28.86,7.028l-6.183-2.53v-2.32
			l-0.824-0.824h-3.915l-0.824,0.824v2.32l-6.228,2.558l-1.59-1.588H8.132L5.123,8.819l1.798,2.139L4.256,17.22H2.179l-0.824,0.824
			v3.914l0.824,0.824h2.008l2.564,6.356l-1.46,1.46v1.165l3.351,3.01l1.997-1.654l6.477,2.727v1.975l0.824,0.824h3.915l0.824-0.824
			v-1.975l6.433-2.698l1.457,1.456h1.165l2.768-2.768v-1.165l-1.49-1.491l2.594-6.4h2.216l0.824-0.824v-3.914L37.821,17.22
			L37.821,17.22z M20,28.688L11.312,20L20,11.313L28.687,20L20,28.688L20,28.688z"/>
	</g>
	<g>
		<path fill="#B0ACB0" d="M22.987,19.528h-0.388l-0.458-1.071l0.31-0.368l-0.511-0.569h-0.198l-0.277,0.277l-1.05-0.43v-0.394
			l-0.14-0.14h-0.665l-0.14,0.14v0.394l-1.058,0.434l-0.27-0.27h-0.198l-0.511,0.569l0.305,0.363l-0.453,1.063h-0.353l-0.14,0.14
			v0.665l0.14,0.14h0.341l0.435,1.079L17.463,21.8v0.198l0.569,0.511l0.339-0.281l1.1,0.463v0.335l0.14,0.14h0.665l0.14-0.14v-0.335
			l1.093-0.458l0.247,0.247h0.198l0.47-0.47v-0.198l-0.253-0.253l0.441-1.087h0.376l0.14-0.14v-0.665L22.987,19.528L22.987,19.528z
			 M19.961,21.476L18.485,20l1.475-1.475L21.436,20L19.961,21.476L19.961,21.476z"/>
	</g>
	<g>
		<path fill="#497775" d="M27.685,21.915l-0.925-0.39l-0.015-3.011l1.109-0.566l-0.646-1.869l-0.472-0.199l-0.939,0.382l-2.07-2.078
			l0.396-0.939l-0.193-0.474l-1.584-0.668l-0.474,0.193l-0.396,0.939l-2.956-0.027l-0.372-0.914l-0.472-0.199l-1.789,0.843
			l0.362,1.172l-2.146,2.079l-0.841-0.354l-0.474,0.193l-0.668,1.584l0.193,0.474l0.813,0.343l-0.047,3.009l-0.84,0.342
			l-0.199,0.472l0.842,1.79l1.09-0.329l2.155,2.208l-0.337,0.799l0.193,0.474l1.584,0.668l0.474-0.193l0.337-0.799l3.063,0.006
			l0.341,0.838l0.472,0.199l1.592-0.648l0.199-0.472l-0.348-0.857l2.141-2.147l0.897,0.378l0.474-0.193l0.668-1.584L27.685,21.915
			L27.685,21.915z M18.518,23.515l-2.033-4.997l4.997-2.033l2.033,4.997L18.518,23.515L18.518,23.515z"/>
	</g>
</g>
<g>
	<g>
		<path fill="#485654" d="M37.821,17.222h-2.285l-2.695-6.305l1.827-2.169l-3.009-3.351h-1.166L28.86,7.03l-6.183-2.53v-2.32
			l-0.824-0.824h-3.915l-0.824,0.824v2.32l-6.228,2.558L9.297,5.47H8.132L5.123,8.821l1.798,2.139l-2.665,6.261H2.179l-0.824,0.824
			v3.914l0.824,0.824h2.008l2.564,6.356l-1.46,1.46v1.165l3.351,3.01l1.997-1.654l6.477,2.727v1.975l0.824,0.824h3.915l0.824-0.824
			v-1.975l6.433-2.698l1.457,1.456h1.165l2.768-2.768v-1.165l-1.49-1.491l2.594-6.4h2.216l0.824-0.824v-3.914L37.821,17.222
			L37.821,17.222z M20,28.69l-8.687-8.688L20,11.315l8.687,8.688L20,28.69L20,28.69z"/>
	</g>
	<g>
		<path fill="#B0ACB0" d="M22.987,19.53h-0.388l-0.458-1.071l0.31-0.368l-0.511-0.569h-0.198l-0.277,0.277l-1.05-0.43v-0.394
			l-0.14-0.14h-0.665l-0.14,0.14v0.394l-1.058,0.434l-0.27-0.27h-0.198l-0.511,0.569l0.305,0.363l-0.453,1.063h-0.353l-0.14,0.14
			v0.665l0.14,0.14h0.341l0.435,1.079l-0.248,0.248V22l0.569,0.511l0.339-0.281l1.1,0.463v0.335l0.14,0.14h0.665l0.14-0.14v-0.335
			l1.093-0.458l0.247,0.247h0.198l0.47-0.47v-0.198l-0.253-0.253l0.441-1.087h0.376l0.14-0.14V19.67L22.987,19.53L22.987,19.53z
			 M19.961,21.478l-1.475-1.475l1.475-1.475l1.475,1.475L19.961,21.478L19.961,21.478z"/>
	</g>
	<g>
		<path fill="#497775" d="M27.685,21.917l-0.925-0.39l-0.015-3.011l1.109-0.566l-0.646-1.869l-0.472-0.199l-0.939,0.382l-2.07-2.078
			l0.396-0.939l-0.193-0.474l-1.584-0.668l-0.474,0.193l-0.396,0.939l-2.956-0.027l-0.372-0.914l-0.472-0.199l-1.789,0.843
			l0.362,1.172l-2.146,2.079l-0.841-0.354L12.79,16.03l-0.668,1.584l0.193,0.474l0.813,0.343l-0.047,3.009l-0.84,0.342l-0.199,0.472
			l0.842,1.79l1.09-0.329l2.155,2.208l-0.337,0.799l0.193,0.474l1.584,0.668l0.474-0.193l0.337-0.799l3.063,0.006l0.341,0.838
			l0.472,0.199l1.592-0.648l0.199-0.472l-0.348-0.857l2.141-2.147l0.897,0.378l0.474-0.193l0.668-1.584L27.685,21.917L27.685,21.917
			z M18.518,23.517l-2.033-4.997l4.997-2.033l2.033,4.997L18.518,23.517L18.518,23.517z"/>
	</g>
</g>
</svg>
