<?xml version="1.0" encoding="utf-8"?>
<!-- Generator: Adobe Illustrator 17.0.0, SVG Export Plug-In . SVG Version: 6.00 Build 0)  -->
<!DOCTYPE svg PUBLIC "-//W3C//DTD SVG 1.1//EN" "http://www.w3.org/Graphics/SVG/1.1/DTD/svg11.dtd">
<svg version="1.1" id="Calque_1" xmlns="http://www.w3.org/2000/svg" xmlns:xlink="http://www.w3.org/1999/xlink" x="0px" y="0px"
	 width="640px" height="317px" viewBox="0 0 640 317" enable-background="new 0 0 640 317" xml:space="preserve">
<path fill="#FFCF36" d="M171.807,229.432c0.097-0.193,0.473-0.404,0.641-0.522c13.134-9.264,10.863-12.767,47.634-38.798
	c0,0-27.713-19.535-62.303-15.323c-11.035,1.344-17.412-26.571-17.412-26.571s35.175-15.624,38.007-19.482
	c3.63-4.944,10.639-7.334,6.116-31.286c-2.089-11.062,14.761,31.901,43.303,13.741c24.253-15.431-2.454-42.468-13.318-47.313
	c-3.268-1.458-2.08-21.645,8.816-25.65c13.783-5.066,23.501,6.012,24.279,25.608c0.252,6.333,28.188,11.909,36.359,11.885
	c10.124-0.03,32.759-9.645,32.243-19.735c-0.718-14.041-8.793-15.042-8.793-15.042s23.181-0.032,38.727,19.69
	c9.292,11.788,65.42-1.036,70.401-22.256l6.709,4.72c0,0,23.483-16.384,23.929-8.663s-13.997,14.619-13.798,19.626
	c0.377,9.5,41.2,9.675,45.071,35.43c4.583,30.493-22.646,54.125-16.76,68.868c6.728,16.848,21.583,17.415,19.443,20.625
	c-4.614,6.921-37.915,13.252-44.826,20.792c-6.732,7.345-4.402,9.463-4.402,9.463l5.148,4.939c0,0-16.799,15.698-52.978,14.859
	c-8.998-0.209-21.5-21.095-30.57-25.08c-3.053-1.341-21.095,22.064,6.139,48.319c3.151,3.038,3.774,1.947,3.774,1.947
	s-21.074,13.216-35.557-3.859s-18.234-32.471-18.234-32.471s-13.954,26.274-36.393,35.532c-20.149,8.313-33.751,8.979-33.751,8.979
	s-3.179-31.751,8.207-43.609c11.386-11.858-0.965-2.341-0.965-2.341s-32.514,3.63-52.892,30.311
	C188.566,253.618,166.829,239.329,171.807,229.432z"/>
<path fill="#B5CF32" stroke="#000000" stroke-width="3.5173" stroke-miterlimit="10" d="M110.395,185.926
	c-6.242,0.992-11.84,1.939-17.646,3.211l-7.802,1.99l2.751,6.139l23.644-6.587l0.809,8.81l-21.901,6.86
	c0.854,2.621,1.542,4.904,2.083,6.939l29.52-10.963l-2.156,11.519L83.75,228.37c-1.312-5.985-3.859-13.759-6.555-20.937
	c-2.786-7.159-5.685-13.546-7.808-16.826l6.599-7.906l29.711-5.387L110.395,185.926z"/>
<path fill="#B5CF32" stroke="#000000" stroke-width="3.5173" stroke-miterlimit="10" d="M146.014,169.036
	c5.523,0.849,10.526,2.748,14.077,5.715l-11.069,6.731c-2.345-1.732-5.319-2.484-8.303-2.86c-2.984-0.375-5.921-0.105-8.332,0.423
	c-1.697,0.372-3.088,0.863-4.171,1.475c-1.063,0.702-1.57,1.374-1.434,1.999c0.177,0.803,1.265,1.501,3.337,1.984
	c2.072,0.483,4.611,0.957,7.614,1.421c0.863,0.091,1.744,0.273,2.607,0.363c5.433,0.869,11.728,1.828,17.011,3.293
	c6.183,1.735,11.056,4.316,11.977,8.515c0.607,2.768-0.324,5.781-3.268,8.581c-2.945,2.798-8.168,5.441-15.761,7.105
	c-5.985,1.312-13.078,1.836-19.563,1.293c-6.486-0.544-12.452-2.139-16.183-5.065l8.151-9.37c3.653,2.568,8.429,3.862,13.12,4.333
	c4.601,0.489,9.363,0.006,12.936-0.777c1.698-0.372,3.088-0.863,4.171-1.475c1.013-0.503,1.431-1.157,1.295-1.781
	c-0.157-0.716-1.226-1.323-3.298-1.806c-2.052-0.393-4.679-0.846-7.683-1.311c-6.078-0.822-13.684-1.775-19.976-3.579
	c-6.294-1.805-11.216-4.189-12.136-8.386c-0.568-2.59-0.162-5.862,2.475-8.781s7.287-5.624,15.237-7.366
	C134.29,168.516,140.491,168.187,146.014,169.036z"/>
<path fill="#B5CF32" stroke="#000000" stroke-width="3.5173" stroke-miterlimit="10" d="M166.769,160.367
	c5.09-0.273,11.676-0.126,18.25,0.4c6.573,0.525,13.177,1.605,18.39,3.178c5.123,1.592,8.736,3.982,9.421,7.108
	c0.803,3.662-1.082,7.446-5.665,10.884c-4.582,3.438-12.129,6.592-22.58,8.883c0.729,1.618,1.615,3.951,2.343,6.413
	c0.726,2.462,1.275,4.964,1.666,6.75l-14.111,6.09c-0.118-0.537-0.255-1.162-0.304-1.807c-0.116-0.536-0.254-1.161-0.34-1.985
	l-0.509-2.322c-1.881-8.575-5.872-17.812-9.451-25.17c-2.071-4.322-4.281-8.424-6.579-12.507L166.769,160.367z M179.939,178.169
	c0.246,0.695,0.582,1.371,0.827,2.066c0.395,0.944,0.808,1.976,1.221,3.008c4.913-1.077,8.975-2.622,11.727-4.162
	c1.421-0.779,2.484-1.48,3.151-2.281c0.687-0.713,1.015-1.345,0.878-1.971c-0.137-0.625-0.829-1.223-2.186-1.862
	c-2.714-1.277-6.967-2.311-11.975-2.524c-2.549-0.097-4.929,0.144-7.342,0.672C177.359,172.371,178.688,175.448,179.939,178.169z"/>
<path fill="#B5CF32" stroke="#000000" stroke-width="3.5173" stroke-miterlimit="10" d="M234.217,140.06
	c1.351,6.163,4.745,12.252,8.475,19.018c1.747,3.267,4.915,8.753,9.013,15.062c4.098,6.311,9.126,13.446,14.533,19.751l-16.042,1.55
	l-9.965-11.296l-13.977,3.719l-4.982,14.854l-13.478-4.253c1.988-5.024,3.799-10.008,5.839-16.071
	c1.952-6.046,3.379-12.35,4.607-18.703c1.139-6.335,1.738-11.709,2.281-17.351L234.217,140.06z M237.405,176.807l-6.881-11.316
	l-3.363,14.124L237.405,176.807z"/>
<path fill="#B5CF32" stroke="#000000" stroke-width="3.5173" stroke-miterlimit="10" d="M263.181,109.464
	c3.777,0.576,7.593,1.33,10.988,0.586c5.358-1.174,3.306-4.562,5.182-4.974c1.697-0.372,2.3,0.245,2.398,0.691
	c0.078,0.358,1.496,11.094-10.741,13.776c-3.574,0.783-7.023,0.416-10.206-0.01c-3.094-0.444-5.811-0.88-7.864-0.43
	c-3.574,0.783-2.512,3.92-2.958,4.019c-0.894,0.196-2.641,0.766-2.954-0.663c-0.861-3.93,1.372-11.253,9.053-12.937
	C258.222,109.053,261.129,109.071,263.181,109.464z M287.991,183.787c-1.161,0.254-3.067,0.953-3.439-0.745
	c-0.196-0.891,1.755-13.77-2.219-31.904c-1.39-6.342-3.67-14.174-9.743-12.843c-3.393,0.744-9.872,4.503-5.996,22.19
	c2.35,10.719,7.956,23.908,8.19,24.979c0.275,1.252-1.264,1.495-2.156,1.691l-7.593,1.664c-3.305,0.724-4.311,2.536-9.48-21.046
	c-8.871-40.463-5.197-38.648,1.682-40.156c3.126-0.685,6.244-1.836,6.695,0.218c0.195,0.894-0.373,2.142-0.099,3.392
	c0.196,0.892,0.819,1.599,1.713,1.402c1.518-0.333,4.824-4.895,10.54-6.149c2.501-0.548,12.942-2.462,18.091,21.031
	c7.695,35.104,4.535,33.925,1.498,34.59L287.991,183.787z"/>
<path fill="#B5CF32" stroke="#000000" stroke-width="3.5173" stroke-miterlimit="10" d="M332.996,134.977
	c4.327,2.234,7.59,6.013,8.744,11.283c1.155,5.27,0.158,10.544-2.919,14.869c-3.167,4.345-8.413,7.742-15.828,9.367
	c-8.665,1.9-14.343,0.337-18.163-2.57c-3.802-2.818-5.634-6.91-6.338-10.126c-1.41-6.431,0.123-11.823,3.705-15.977
	c3.513-4.047,8.966-6.928,15.488-8.358C323.134,132.27,328.667,132.743,332.996,134.977z M312.756,154.111
	c1.253,5.716,3.842,8.988,9.915,7.656c5.449-1.194,6.436-6.091,5.123-12.077c-1.312-5.985-5.571-8.327-9.41-7.485
	C313.738,143.224,311.347,147.679,312.756,154.111z"/>
<path fill="#B5CF32" stroke="#000000" stroke-width="3.5173" stroke-miterlimit="10" d="M346.849,122.578
	c4.491,8.096,8.992,18.811,13.635,32.304l25.082-9.428l-1.324,11.897l-22.761,9.764c-6.909,1.796-10.462,2.669-10.641,2.707
	c-1.312-5.985-4.034-14.561-7.087-22.506c-3.032-7.855-6.196-15.026-8.318-18.303L346.849,122.578z"/>
<path fill="#B5CF32" stroke="#000000" stroke-width="3.5173" stroke-miterlimit="10" d="M382.832,113.756
	c6.169,10.63,11.543,24.899,16.302,42.766l-11.598,4.32c-0.861-3.93-2.572-9.172-4.519-14.643
	c-1.949-5.472-4.204-11.061-6.392-15.918c-2.169-4.767-4.161-8.729-5.493-10.966L382.832,113.756z"/>
<path fill="#B5CF32" stroke="#000000" stroke-width="3.5173" stroke-miterlimit="10" d="M426.234,107.611
	c5.523,0.849,10.526,2.748,14.078,5.715l-11.069,6.731c-2.346-1.732-5.319-2.484-8.304-2.86c-2.984-0.375-5.921-0.105-8.332,0.423
	c-1.697,0.372-3.087,0.863-4.171,1.475c-1.063,0.702-1.57,1.374-1.434,1.999c0.177,0.803,1.265,1.501,3.338,1.984
	c2.071,0.483,4.609,0.957,7.613,1.421c0.863,0.091,1.744,0.273,2.608,0.364c5.433,0.869,11.728,1.828,17.011,3.293
	c6.185,1.735,11.058,4.316,11.978,8.515c0.606,2.768-0.325,5.781-3.268,8.581c-2.946,2.798-8.169,5.441-15.763,7.105
	c-5.985,1.312-13.078,1.836-19.563,1.293c-6.485-0.544-12.452-2.139-16.182-5.065l8.15-9.37c3.653,2.568,8.429,3.862,13.121,4.333
	c4.601,0.489,9.362,0.006,12.935-0.777c1.698-0.372,3.088-0.863,4.171-1.475c1.014-0.503,1.432-1.157,1.295-1.781
	c-0.157-0.716-1.226-1.323-3.298-1.805c-2.052-0.393-4.679-0.846-7.683-1.311c-6.078-0.822-13.682-1.775-19.976-3.579
	s-11.216-4.189-12.136-8.386c-0.568-2.59-0.161-5.862,2.475-8.781c2.637-2.919,7.288-5.624,15.237-7.366
	C414.512,107.09,420.711,106.762,426.234,107.611z"/>
<path fill="#B5CF32" stroke="#000000" stroke-width="3.5173" stroke-miterlimit="10" d="M451.881,98.62
	c6.169,10.63,11.543,24.899,16.302,42.766l-11.597,4.32c-0.862-3.93-2.573-9.172-4.521-14.642
	c-1.948-5.472-4.202-11.061-6.391-15.918c-2.169-4.767-4.161-8.729-5.493-10.966L451.881,98.62z"/>
<path fill="#B5CF32" stroke="#000000" stroke-width="3.5173" stroke-miterlimit="10" d="M526.622,127.744
	c-2.095,1.114-4.032,2.102-5.811,2.958l-5.9,2.979c-1.253-5.716-3.033-10.849-5.014-15.19c-1.981-4.34-3.857-7.768-5.266-10.36
	c-0.492,1.604-0.955,3.765-0.924,7.316c-0.06,3.572,0.124,8.68,0.906,16.09l-9.98,4.437c-0.549-2.502-2.86-6.209-5.687-9.708
	c-2.806-3.409-6.199-6.504-8.903-8.158c1.478,3.327,2.798,6.783,4.125,10.705c0.629,2.015,1.149,3.96,1.561,5.836
	c-4.678,2.15-6.931,3.211-10.37,4.801c-0.938,0.434-1.936,0.984-1.936,0.984s-5.978-18.722-9.506-26.281
	c-2.072-4.32-4.231-8.621-6.55-12.794l10.306-7.221c3.686,1.439,7.864,4.269,11.743,7.442c3.879,3.176,7.439,6.608,10.071,9.215
	c1.314,1.304,2.303,2.396,3.055,3.262c0.623,0.706,1.058,1.359,1.029,1.272c0.075,0.217,0.472-19.201,0.358-24.418
	c-0.022-3.085-0.104-5.596-0.266-7.62l5.383-2.771c0,0,2.629-1.265,5.166-2.911c0,0,8.855,14.434,12.73,23.048
	C520.974,109.623,524.743,119.17,526.622,127.744z"/>
<path fill="#B5CF32" stroke="#000000" stroke-width="3.5173" stroke-miterlimit="10" d="M555.957,86.102
	c4.327,2.234,7.59,6.013,8.746,11.283c1.155,5.27,0.158,10.545-2.919,14.87c-3.167,4.345-8.415,7.741-15.829,9.367
	c-8.663,1.899-14.343,0.337-18.162-2.569c-3.802-2.818-5.634-6.911-6.339-10.127c-1.41-6.431,0.123-11.823,3.706-15.977
	c3.513-4.047,8.966-6.928,15.487-8.358C546.095,83.396,551.629,83.869,555.957,86.102z M535.717,105.237
	c1.253,5.716,3.842,8.988,9.916,7.656c5.449-1.195,6.435-6.091,5.123-12.077c-1.312-5.985-5.569-8.326-9.411-7.485
	C536.701,94.35,534.307,98.805,535.717,105.237z"/>
<circle fill="#B5CF32" stroke="#000000" stroke-width="2.6272" stroke-miterlimit="10" cx="435.351" cy="77.101" r="7.444"/>
<polygon fill="#B5CF32" stroke="#000000" stroke-width="2.5107" stroke-miterlimit="10" points="372.866,92.774 370.884,100.046 
	377.007,101.49 382.736,84.165 375.986,82.369 "/>
<path fill="#BD104C" d="M563.627,29.149l27.127-12.631c0,0,18.343,78.305,17.091,78.404
	C606.595,95.021,563.627,29.149,563.627,29.149z"/>
<circle fill="#FFCF36" cx="617.964" cy="125.233" r="11.089"/>
<path fill="#BD104C" d="M67.4,260.726l-28.529,9.03c0,0-8.1-80.016-6.846-79.952C33.278,189.867,67.4,260.726,67.4,260.726z"/>
<circle fill="#FFCF36" cx="22.038" cy="159.817" r="11.089"/>
<path fill="#BD104C" d="M303.505,106h43.936c0,0-3.348-65.277,63.185-92.476C410.626,13.524,318.15,25,303.505,106z"/>
<path fill="#BD104C" d="M282.164,208h25.107c0,0-25.107,61.757-17.993,85.091l-42.681-5.304
	C246.596,287.787,246.596,243,282.164,208z"/>
<path fill="#BD104C" d="M324.008,196.996l22.177-13.809c0,0,7.04,63.179,35.295,94.986c11.152,12.553-32.785,26.78-32.785,26.78
	S312.292,255.997,324.008,196.996z"/>
<g>
	<g id="Page-1">
		<g id="Core" transform="translate(-296.000000, -296.000000)">
			<g id="language" transform="translate(296.000000, 296.000000)">
				<path id="Shape" fill="#005BC0" d="M531.274,165.392c-38.353,0-69.733,31.38-69.733,69.733s31.38,69.733,69.733,69.733
					c38.353,0,69.733-31.38,69.733-69.733S569.627,165.392,531.274,165.392L531.274,165.392z M579.39,207.232h-20.223
					c-2.092-9.065-5.579-16.736-9.763-25.104C561.957,187.009,573.114,195.377,579.39,207.232L579.39,207.232z M531.274,179.338
					c5.579,8.368,10.46,17.433,13.249,27.893h-26.499C520.814,197.469,525.695,187.706,531.274,179.338L531.274,179.338z
					 M477.579,249.072c-1.395-4.184-2.092-9.065-2.092-13.947c0-4.881,0.697-9.763,2.092-13.947h23.709
					c-0.697,4.881-0.697,9.065-0.697,13.947c0,4.881,0.697,9.065,0.697,13.947H477.579L477.579,249.072z M483.158,263.018h20.223
					c2.092,9.065,5.579,16.736,9.763,25.104C500.591,283.241,489.434,274.873,483.158,263.018L483.158,263.018z M503.38,207.232
					h-20.223c6.973-11.855,17.433-20.223,29.985-25.104C508.959,190.496,505.472,198.166,503.38,207.232L503.38,207.232z
					 M531.274,290.912c-5.579-8.368-10.46-17.433-13.249-27.893h26.499C541.734,272.781,536.852,282.544,531.274,290.912
					L531.274,290.912z M547.313,249.072h-32.077c-0.697-4.881-1.395-9.065-1.395-13.947c0-4.881,0.697-9.065,1.395-13.947h32.775
					c0.697,4.881,1.395,9.065,1.395,13.947C549.405,240.006,548.01,244.19,547.313,249.072L547.313,249.072z M549.405,288.122
					c4.184-7.671,7.671-16.039,9.763-25.104h20.223C573.114,274.873,561.957,283.241,549.405,288.122L549.405,288.122z
					 M561.957,249.072c0.697-4.881,0.697-9.065,0.697-13.947c0-4.881-0.697-9.065-0.697-13.947h23.709
					c1.395,4.184,2.092,9.065,2.092,13.947c0,4.881-0.697,9.763-2.092,13.947H561.957L561.957,249.072z"/>
			</g>
		</g>
	</g>
	<g>
		<path fill="#696A6D" d="M619.786,191.9h-3.06c-2.074,0-4.047-0.785-5.537-2.315c-1.47-1.51-2.275-3.423-2.275-5.517
			c0-2.175,0.906-4.188,2.517-5.678l1.913-1.893c0.322-0.322,0.503-0.765,0.503-1.228c0-0.463-0.201-0.906-0.524-1.228l-4.49-4.45
			c-0.302-0.282-0.785-0.463-1.268-0.463c-0.483,0-0.946,0.181-1.268,0.483l-1.832,1.832c-1.53,1.631-3.584,2.537-5.759,2.537
			c-2.094,0-4.087-0.805-5.597-2.255c-1.53-1.49-2.416-3.463-2.416-5.537v-3.061c0-0.987-0.705-1.832-1.611-1.832h-6.141
			c-0.906,0-1.711,0.846-1.711,1.832v3.061c0,2.094-0.846,4.047-2.376,5.537c-1.51,1.45-3.463,2.255-5.557,2.255
			c-2.154,0-4.168-0.886-5.658-2.497l-1.893-1.893l-0.02-0.02l-0.02-0.02c-0.262-0.282-0.745-0.443-1.228-0.443
			c-0.483,0-0.946,0.181-1.268,0.483l-4.47,4.45c-0.443,0.443-0.503,0.966-0.503,1.228c0,0.282,0.06,0.785,0.503,1.228l1.852,1.832
			c1.651,1.51,2.557,3.544,2.557,5.718c0,2.074-0.805,4.027-2.275,5.537c-1.49,1.53-3.463,2.315-5.537,2.315h-3.06
			c-1.007,0-1.852,0.866-1.852,1.772v3.06v3.081c0,0.906,0.846,1.772,1.852,1.772h3.081c2.074,0,4.047,0.785,5.537,2.315
			c1.47,1.51,2.275,3.423,2.275,5.517c0,2.175-0.906,4.208-2.557,5.738l-1.832,1.812c-0.664,0.685-0.664,1.792,0,2.456l4.49,4.47
			l0.02,0.02l0.02,0.02c0.262,0.282,0.745,0.443,1.228,0.443s0.946-0.181,1.268-0.483l1.872-1.873
			c1.47-1.591,3.524-2.497,5.658-2.497c2.074,0,4.047,0.805,5.557,2.255c1.53,1.49,2.356,3.463,2.356,5.537v3.06
			c0,0.987,0.825,1.832,1.752,1.832h6.121c0.926,0,1.792-0.846,1.792-1.832v-3.06c0-2.094,0.805-4.047,2.336-5.537
			c1.51-1.45,3.443-2.255,5.537-2.255c2.154,0,4.188,0.906,5.738,2.537l1.832,1.832c0.302,0.302,0.785,0.483,1.268,0.483
			s0.946-0.181,1.268-0.483l4.49-4.47c0.664-0.664,0.664-1.792,0-2.477l-1.913-1.893c-1.631-1.49-2.517-3.503-2.517-5.678
			c0-2.094,0.805-4.087,2.275-5.597c1.49-1.53,3.463-2.416,5.537-2.416h3.061c1.007,0,1.47-0.745,1.47-1.591v-3.04v-3.02
			C621.276,192.906,620.873,191.9,619.786,191.9z M586.103,214.654c-9.662,0-17.495-7.833-17.495-17.495
			c0-9.662,7.833-17.495,17.495-17.495c9.662,0,17.495,7.833,17.495,17.495C603.598,206.821,595.765,214.654,586.103,214.654z"/>
		<g>
			<path d="M586.04,177.37c-5.183,0-10.044,2.017-13.695,5.668c-3.651,3.651-5.668,8.511-5.668,13.695
				c0,5.183,2.017,10.024,5.668,13.695c3.651,3.651,8.532,5.668,13.695,5.668c5.183,0,10.044-2.017,13.695-5.668
				c3.651-3.651,5.668-8.511,5.668-13.695c0-5.183-2.017-10.024-5.668-13.695C596.084,179.386,591.224,177.37,586.04,177.37z
				 M586.04,212.867c-8.935,0-16.135-7.241-16.135-16.135s7.2-16.135,16.135-16.135c8.935,0,16.135,7.241,16.135,16.135
				S594.975,212.867,586.04,212.867z"/>
			<path d="M619.864,188.664h-3.066c-2.501,0-4.599-2.098-4.599-4.679c0-1.291,0.545-2.44,1.513-3.308l1.977-1.936
				c1.956-1.936,1.956-5.083,0-7.039l-4.498-4.457c-0.887-0.887-2.198-1.412-3.53-1.412s-2.622,0.524-3.53,1.412l-1.896,1.896
				c-0.908,1.008-2.158,1.553-3.469,1.553c-2.582,0-4.78-2.098-4.78-4.578v-3.046c0-2.723-2.118-5.062-4.841-5.062h-6.131
				c-2.783,0-5.002,2.319-5.002,5.062v3.066c0,2.481-2.138,4.578-4.72,4.578c-1.291,0-2.461-0.545-3.348-1.493l-1.956-1.936
				c-0.887-0.908-2.198-1.412-3.53-1.412s-2.622,0.524-3.53,1.412l-4.498,4.437c-1.936,1.936-1.936,5.103,0,7.019l1.896,1.896
				c1.008,0.908,1.573,2.057,1.573,3.368c0,2.582-2.098,4.679-4.599,4.679h-3.066c-2.763-0.02-5.083,2.239-5.083,4.982v3.066v3.066
				c0,2.723,2.319,5.002,5.083,5.002h3.066c2.501,0,4.599,2.098,4.599,4.679c0,1.291-0.565,2.481-1.573,3.388l-1.896,1.856
				c-1.936,1.936-1.936,5.083,0,7.019l4.498,4.478c0.887,0.908,2.198,1.412,3.53,1.412s2.622-0.524,3.53-1.412l1.956-1.936
				c0.847-0.948,2.037-1.493,3.328-1.493c2.582,0,4.72,2.098,4.72,4.578v3.066c0,2.723,2.219,5.062,4.982,5.062h6.131
				c2.743,0,5.022-2.319,5.022-5.062v-3.066c0-2.481,2.118-4.578,4.699-4.578c1.291,0,2.481,0.565,3.409,1.553l1.896,1.896
				c0.908,0.887,2.198,1.412,3.53,1.412s2.622-0.524,3.53-1.412l4.498-4.478c1.936-1.936,1.936-5.103,0-7.039l-1.977-1.936
				c-0.968-0.867-1.513-2.098-1.513-3.368c0-2.582,2.098-4.76,4.599-4.76h3.066c2.743,0,4.699-2.077,4.699-4.82v-3.106v-3.066
				C624.563,190.923,622.607,188.664,619.864,188.664z M621.376,196.732v3.046c0,0.847-0.464,1.593-1.472,1.593h-3.066
				c-2.077,0-4.054,0.887-5.547,2.42c-1.472,1.513-2.279,3.509-2.279,5.607c0,2.178,0.887,4.195,2.521,5.688l1.916,1.896
				c0.666,0.686,0.666,1.815,0,2.481l-4.498,4.478c-0.323,0.303-0.787,0.484-1.271,0.484s-0.968-0.182-1.271-0.484l-1.835-1.835
				c-1.553-1.634-3.59-2.541-5.748-2.541c-2.098,0-4.034,0.807-5.547,2.259c-1.533,1.493-2.34,3.449-2.34,5.547v3.066
				c0,0.988-0.867,1.835-1.795,1.835h-6.131c-0.928,0-1.755-0.847-1.755-1.835v-3.066c0-2.077-0.827-4.054-2.36-5.547
				c-1.513-1.452-3.489-2.259-5.567-2.259c-2.138,0-4.195,0.908-5.668,2.501l-1.876,1.876c-0.323,0.303-0.787,0.484-1.271,0.484
				c-0.484,0-0.968-0.161-1.23-0.444l-0.02-0.02l-0.02-0.02l-4.498-4.478c-0.666-0.666-0.666-1.775,0-2.461l1.835-1.815
				c1.654-1.533,2.562-3.57,2.562-5.748c0-2.098-0.807-4.014-2.279-5.526c-1.493-1.533-3.469-2.319-5.547-2.319h-3.086
				c-1.008,0-1.856-0.867-1.856-1.775v-3.086v-3.066c0-0.908,0.847-1.775,1.856-1.775h3.066c2.077,0,4.054-0.787,5.547-2.319
				c1.472-1.513,2.279-3.469,2.279-5.547c0-2.178-0.908-4.215-2.561-5.728l-1.856-1.835c-0.444-0.444-0.504-0.948-0.504-1.23
				c0-0.262,0.06-0.787,0.504-1.23l4.478-4.457c0.323-0.303,0.787-0.484,1.271-0.484s0.968,0.161,1.23,0.444l0.02,0.02l0.02,0.02
				l1.896,1.896c1.492,1.614,3.509,2.501,5.668,2.501c2.098,0,4.054-0.807,5.567-2.259c1.533-1.493,2.38-3.449,2.38-5.547v-3.066
				c0-0.988,0.807-1.835,1.714-1.835h6.152c0.908,0,1.614,0.847,1.614,1.835v3.066c0,2.077,0.887,4.054,2.42,5.547
				c1.513,1.452,3.509,2.259,5.607,2.259c2.178,0,4.236-0.908,5.768-2.541l1.835-1.835c0.323-0.303,0.787-0.484,1.271-0.484
				s0.968,0.182,1.271,0.464l4.498,4.457c0.323,0.323,0.524,0.766,0.524,1.23c0,0.464-0.182,0.908-0.504,1.23l-1.916,1.896
				c-1.614,1.493-2.521,3.509-2.521,5.688c0,2.098,0.807,4.014,2.279,5.526c1.493,1.533,3.469,2.319,5.547,2.319h3.066
				c1.089,0,1.492,1.008,1.513,1.815V196.732L621.376,196.732z"/>
		</g>
	</g>
</g>
</svg>
